# xmcd CD database file
#
# Track frame offsets:
#	150
#	20462
#	36917
#	56192
#	75975
#	91927
#	113032
#	132880
#	151690
#	173600
#	194175
#
# Disc length: 2862 seconds
#
# Revision: 0
# Processed by: cddbd v1.5.1PL2 Copyright (c) Steve Scherf et al.
# Submitted via: CDex 1.51
#
DISCID=840b2c0b
DTITLE=Ann - うたかた
DYEAR=2002
DGENRE=J-Pop
TTITLE0=碧い空
TTITLE1=うたかた
TTITLE2=願いは…
TTITLE3=あわい
TTITLE4=茜色
TTITLE5=我侭に
TTITLE6=月と星の涙
TTITLE7=愛は今。
TTITLE8=１つだけ
TTITLE9=Kiss me honey
TTITLE10=Butterfly
EXTD=YEAR: 2002
EXTT0=
EXTT1=
EXTT2=
EXTT3=
EXTT4=
EXTT5=
EXTT6=
EXTT7=
EXTT8=
EXTT9=
EXTT10=
PLAYORDER=
